<svg xmlns="http://www.w3.org/2000/svg" xmlns:xlink="http://www.w3.org/1999/xlink" width="1344" zoomAndPan="magnify" viewBox="0 0 1008 1295.99994" height="1728" preserveAspectRatio="xMidYMid meet" version="1.0"><defs><g/><clipPath id="28af13197a"><path d="M 522 821 L 559 821 L 559 862.996094 L 522 862.996094 Z M 522 821 " clip-rule="nonzero"/></clipPath><clipPath id="a55f99a015"><path d="M 514.652344 815 L 554 815 L 554 853 L 514.652344 853 Z M 514.652344 815 " clip-rule="nonzero"/></clipPath><clipPath id="318841f3fa"><path d="M 514.652344 807 L 548 807 L 548 830 L 514.652344 830 Z M 514.652344 807 " clip-rule="nonzero"/></clipPath><clipPath id="9abc158cbf"><path d="M 528 802.246094 L 553 802.246094 L 553 814 L 528 814 Z M 528 802.246094 " clip-rule="nonzero"/></clipPath><clipPath id="37dbb155b1"><path d="M 544 828 L 569 828 L 569 862.996094 L 544 862.996094 Z M 544 828 " clip-rule="nonzero"/></clipPath><clipPath id="54022b802c"><path d="M 560 824 L 575.402344 824 L 575.402344 853 L 560 853 Z M 560 824 " clip-rule="nonzero"/></clipPath><clipPath id="358ec2b406"><path d="M 555 811 L 575.402344 811 L 575.402344 829 L 555 829 Z M 555 811 " clip-rule="nonzero"/></clipPath><clipPath id="c6a6d46d24"><path d="M 549 802.246094 L 567 802.246094 L 567 820 L 549 820 Z M 549 802.246094 " clip-rule="nonzero"/></clipPath><clipPath id="117156d4b6"><path d="M 522 821 L 559 821 L 559 862.996094 L 522 862.996094 Z M 522 821 " clip-rule="nonzero"/></clipPath></defs><rect x="-100.8" width="1209.6" fill="#ffffff" y="-129.599994" height="1555.199927" fill-opacity="1"/><rect x="-100.8" width="1209.6" fill="#000000" y="-129.599994" height="1555.199927" fill-opacity="1"/><path stroke-linecap="butt" transform="matrix(0.739548, -0.124774, 0.124774, 0.739548, 91.404515, 612.281638)" fill="none" stroke-linejoin="miter" d="M -4.072993 298.370557 L 59.936545 113.236356 L 55.712443 99.609335 L 114.828569 99.60558 L 127.870325 298.368112 L 132.463461 311.999294 L 85.416992 312.000563 L 89.94031 298.370428 L 88.45914 266.513391 L 44.449777 266.514721 L 33.857022 298.368241 L 35.339418 311.997503 L -11.701915 311.999639 Z M 86.902294 233.10126 C 86.30766 219.125275 85.71392 205.989269 85.121075 193.693243 C 84.531759 181.344993 83.815628 168.183057 82.972682 154.207433 L 81.493946 154.206198 L 55.046492 233.103696 Z M 161.263088 298.366171 L 184.302178 132.945872 L 158.521456 132.943292 L 144.297372 139.015697 L 149.705203 99.605741 L 266.536622 99.604856 L 261.127924 139.019948 L 248.087414 132.942861 L 222.232192 132.943557 L 199.192236 298.368992 L 203.785372 312.000173 L 153.706932 312.002249 Z M 247.722576 298.369824 L 273.875733 113.239798 L 269.578864 99.605782 L 319.656437 99.608842 L 311.805748 113.237482 L 300.841328 190.65371 L 341.808448 190.651454 L 352.772002 113.240363 L 348.475133 99.606347 L 398.553573 99.60427 L 390.702016 113.238047 L 364.548859 298.368072 L 369.141996 311.999254 L 319.063556 312.00133 L 326.618845 298.370388 L 336.991538 223.9918 L 296.025284 223.98892 L 285.652591 298.367508 L 290.245727 311.998689 L 240.167287 312.000766 Z M 391.856272 298.369415 L 418.009429 113.239389 L 413.712559 99.605373 L 463.790133 99.608433 L 455.939443 113.237074 L 432.52631 278.588984 L 479.572779 278.587714 L 494.164904 272.587968 L 488.97884 311.998366 L 384.300983 312.000357 Z M 501.097059 298.371381 L 527.245947 113.235354 L 522.948211 99.606473 L 632.220679 99.608503 L 626.739215 139.0166 L 613.697839 132.944649 L 562.140663 132.94549 L 554.2095 189.09603 L 587.622806 189.097555 L 602.143157 183.022316 L 595.771779 228.581627 L 583.031805 222.507707 L 549.692133 222.508041 L 541.767097 278.590951 L 596.441015 278.587759 L 610.959506 272.586153 L 605.847076 311.998411 L 493.536634 312.001457 Z M 643.731476 298.366271 L 666.770566 132.945972 L 640.989844 132.943392 L 626.76576 139.015797 L 632.173591 99.605841 L 749.00501 99.604956 L 743.596312 139.020048 L 730.555803 132.942961 L 704.700581 132.943657 L 681.660624 298.369092 L 686.253761 312.000273 L 636.175321 312.002349 Z M 730.190965 298.369924 L 756.344122 113.239898 L 752.047252 99.605882 L 802.124826 99.608942 L 794.274136 113.237583 L 768.120979 298.367608 L 772.714116 311.998789 L 722.635676 312.000866 Z M 793.652574 278.58954 L 813.952506 132.94222 L 852.176721 99.607669 L 928.035883 99.608174 L 922.628052 139.01813 L 909.518178 132.945186 L 864.03008 132.94528 L 850.397543 145.091365 L 833.361106 266.5117 L 843.731014 278.587464 L 889.219112 278.58737 L 903.811237 272.587623 L 898.625173 311.998021 L 822.76601 311.997517 Z M 909.880314 272.586876 L 922.622146 278.587162 L 960.551294 278.589982 L 974.478238 266.514697 L 977.519725 243.697507 L 922.920572 179.986685 L 929.288916 132.942637 L 967.518266 99.608952 L 1035.819344 99.607235 L 1030.337013 139.020468 L 1017.30164 132.944247 L 979.371625 132.946563 L 965.665455 145.090788 L 962.627063 166.355609 L 1017.300716 230.063155 L 1010.63487 278.588773 L 972.999597 312.00156 L 904.69425 311.997275 Z M 909.880314 272.586876 " stroke="#ffffff" stroke-width="22.75815" stroke-opacity="1" stroke-miterlimit="4"/><g fill="#b8110a" fill-opacity="1"><g transform="translate(132.910725, 842.585888)"><g><path d="M -7.3125 -9.140625 L 16.9375 -154.03125 L 12.09375 -163.609375 L 55.84375 -170.984375 L 90.3125 -25.609375 L 95.375 -16.09375 L 60.59375 -10.21875 L 62.25 -20.890625 L 57.15625 -44.265625 L 24.625 -38.78125 L 20.75 -13.875 L 23.5625 -3.96875 L -11.21875 1.890625 Z M 51.859375 -68.75 C 49.679688 -79 47.59375 -88.644531 45.59375 -97.6875 C 43.601562 -106.738281 41.441406 -116.378906 39.109375 -126.609375 L 37.984375 -126.421875 L 28.296875 -64.78125 Z M 51.859375 -68.75 "/></g></g></g><g fill="#b8110a" fill-opacity="1"><g transform="translate(228.284072, 826.494885)"><g><path d="M 19.625 -13.6875 L 16.046875 -138.859375 L -3.015625 -135.640625 L -12.828125 -129.375 L -13.71875 -159.25 L 72.6875 -173.828125 L 73.578125 -143.953125 L 63.171875 -146.8125 L 44.09375 -143.59375 L 47.65625 -18.421875 L 52.734375 -8.890625 L 15.71875 -2.65625 Z M 19.625 -13.6875 "/></g></g></g><g fill="#b8110a" fill-opacity="1"><g transform="translate(307.948838, 813.05417)"><g><path d="M 3.90625 -11.046875 L 0.109375 -151.1875 L -4.734375 -160.765625 L 32.296875 -167.015625 L 28.15625 -155.921875 L 29.734375 -97.34375 L 60.03125 -102.453125 L 58.46875 -161.03125 L 53.609375 -170.609375 L 90.640625 -176.859375 L 86.5 -165.765625 L 90.3125 -25.609375 L 95.375 -16.09375 L 58.34375 -9.84375 L 62.25 -20.890625 L 60.59375 -77.15625 L 30.3125 -72.046875 L 31.96875 -15.765625 L 37.015625 -6.25 L 0 0 Z M 3.90625 -11.046875 "/></g></g></g><g fill="#b8110a" fill-opacity="1"><g transform="translate(414.542595, 795.070104)"><g><path d="M 3.90625 -11.046875 L 0.109375 -151.1875 L -4.734375 -160.765625 L 32.296875 -167.015625 L 28.15625 -155.921875 L 31.53125 -30.703125 L 66.296875 -36.578125 L 76.3125 -42.875 L 77.421875 -13.0625 L 0 0 Z M 3.90625 -11.046875 "/></g></g></g><g fill="#b8110a" fill-opacity="1"><g transform="translate(495.329423, 781.440079)"><g><path d="M 3.90625 -11.046875 L 0.109375 -151.1875 L -4.734375 -160.765625 L 76.046875 -174.390625 L 76.9375 -144.53125 L 66.546875 -147.390625 L 28.390625 -140.953125 L 29.546875 -98.46875 L 54.234375 -102.625 L 64.234375 -108.921875 L 65.21875 -74.453125 L 55.03125 -77.375 L 30.34375 -73.203125 L 31.53125 -30.703125 L 71.921875 -37.515625 L 81.921875 -43.828125 L 83.03125 -14 L 0 0 Z M 3.90625 -11.046875 "/></g></g></g><g fill="#b8110a" fill-opacity="1"><g transform="translate(585.092615, 766.295599)"><g><path d="M 19.625 -13.6875 L 16.046875 -138.859375 L -3.015625 -135.640625 L -12.828125 -129.375 L -13.71875 -159.25 L 72.6875 -173.828125 L 73.578125 -143.953125 L 63.171875 -146.8125 L 44.09375 -143.59375 L 47.65625 -18.421875 L 52.734375 -8.890625 L 15.71875 -2.65625 Z M 19.625 -13.6875 "/></g></g></g><g fill="#b8110a" fill-opacity="1"><g transform="translate(664.757392, 752.854881)"><g><path d="M 3.90625 -11.046875 L 0.109375 -151.1875 L -4.734375 -160.765625 L 32.296875 -167.015625 L 28.15625 -155.921875 L 31.96875 -15.765625 L 37.015625 -6.25 L 0 0 Z M 3.90625 -11.046875 "/></g></g></g><g fill="#b8110a" fill-opacity="1"><g transform="translate(713.005052, 744.714732)"><g><path d="M 0.109375 -25.40625 L -3.015625 -135.640625 L 21.078125 -165.125 L 77.171875 -174.578125 L 78.0625 -144.71875 L 67.671875 -147.578125 L 34 -141.890625 L 25.390625 -131.21875 L 28 -39.34375 L 37.140625 -31.65625 L 70.796875 -37.328125 L 80.796875 -43.640625 L 81.90625 -13.8125 L 25.8125 -4.359375 Z M 0.109375 -25.40625 "/></g></g></g><g fill="#b8110a" fill-opacity="1"><g transform="translate(801.646148, 729.759567)"><g><path d="M -3.34375 -29.4375 L 6.84375 -26.546875 L 34.890625 -31.28125 L 43.6875 -42 L 43.09375 -59.1875 L -5.25 -99.515625 L -6.390625 -135.078125 L 17.703125 -164.546875 L 68.1875 -173.0625 L 69.078125 -143.203125 L 58.6875 -146.0625 L 30.625 -141.328125 L 22.03125 -130.65625 L 22.4375 -114.5625 L 70.796875 -74.265625 L 71.921875 -37.515625 L 48.234375 -8.140625 L -2.25 0.375 Z M -3.34375 -29.4375 "/></g></g></g><path stroke-linecap="butt" transform="matrix(0.739548, -0.124774, 0.124774, 0.739548, 434.152305, 850.287793)" fill="none" stroke-linejoin="miter" d="M 0.000926577 1.998447 L 75.110016 1.999169 " stroke="#ffffff" stroke-width="4" stroke-opacity="1" stroke-miterlimit="4"/><path stroke-linecap="butt" transform="matrix(0.739548, -0.124774, 0.124774, 0.739548, 590.103379, 823.976331)" fill="none" stroke-linejoin="miter" d="M -0.00214907 2.001806 L 75.107807 1.997392 " stroke="#ffffff" stroke-width="4" stroke-opacity="1" stroke-miterlimit="4"/><g clip-path="url(#28af13197a)"><path fill="#ffffff" d="M 554.523438 821.53125 L 558.523438 826.457031 C 548.773438 833.601562 552.921875 858.445312 542.109375 862.941406 C 534.457031 862.191406 527.636719 858.601562 522.710938 853.242188 C 532.570312 841.398438 542.765625 830.125 554.523438 821.53125 Z M 554.523438 821.53125 " fill-opacity="1" fill-rule="evenodd"/></g><g clip-path="url(#a55f99a015)"><path fill="#ffffff" d="M 548.773438 815.988281 L 553.082031 820.300781 C 538.804688 832.40625 529.769531 842.546875 521.996094 852.210938 L 521.871094 852.285156 C 517.390625 846.988281 514.695312 840.140625 514.695312 832.667969 C 514.695312 832.0625 514.710938 831.460938 514.746094 830.867188 C 520.152344 819.957031 540.46875 823.53125 548.773438 815.992188 Z M 548.773438 815.988281 " fill-opacity="1" fill-rule="evenodd"/></g><g clip-path="url(#318841f3fa)"><path fill="#ffffff" d="M 530.78125 807.625 C 537.570312 807.695312 546.195312 812.058594 547.03125 814.558594 C 546.753906 820.824219 517.949219 818.988281 514.917969 829.332031 L 514.875 829.335938 C 515.824219 820.609375 520.472656 812.984375 527.21875 808.066406 C 528.320312 807.746094 529.527344 807.613281 530.78125 807.625 Z M 530.78125 807.625 " fill-opacity="1" fill-rule="evenodd"/></g><g clip-path="url(#9abc158cbf)"><path fill="#ffffff" d="M 545.113281 802.246094 C 546.640625 802.246094 548.144531 802.359375 549.609375 802.574219 C 554.136719 807.472656 551.71875 811.875 549.289062 813.21875 C 547.214844 814.695312 541.867188 805.449219 528.453125 807.214844 C 533.242188 804.074219 538.964844 802.246094 545.113281 802.246094 Z M 545.113281 802.246094 " fill-opacity="1" fill-rule="evenodd"/></g><g clip-path="url(#37dbb155b1)"><path fill="#ffffff" d="M 558.980469 828.074219 C 559.257812 828.078125 559.546875 828.132812 559.855469 828.238281 C 563.820312 831.347656 571.070312 846.320312 566.832031 853.78125 C 566.832031 853.78125 566.832031 853.785156 566.832031 853.789062 C 561.3125 859.417969 553.617188 862.914062 545.113281 862.914062 C 544.878906 862.914062 544.644531 862.914062 544.414062 862.910156 C 553.574219 856.289062 551.582031 829.890625 558.980469 828.070312 Z M 558.980469 828.074219 " fill-opacity="1" fill-rule="evenodd"/></g><g clip-path="url(#54022b802c)"><path fill="#ffffff" d="M 566.300781 824.402344 C 569.632812 824.507812 573.519531 826.253906 575.347656 830.050781 L 575.441406 830.277344 C 575.503906 831.066406 575.539062 831.859375 575.539062 832.664062 C 575.539062 840.191406 572.800781 847.078125 568.265625 852.394531 C 572.460938 839.222656 559.695312 827.644531 561.085938 826.355469 C 562.003906 825.027344 564.023438 824.328125 566.300781 824.402344 Z M 566.300781 824.402344 " fill-opacity="1" fill-rule="evenodd"/></g><g clip-path="url(#358ec2b406)"><path fill="#ffffff" d="M 567.265625 811.824219 C 571.5625 816.390625 574.472656 822.28125 575.300781 828.820312 C 572.066406 823.410156 567.242188 821.449219 559.445312 825.535156 L 555.445312 820.507812 C 558.054688 818.152344 563.566406 814.082031 567.265625 811.824219 Z M 567.265625 811.824219 " fill-opacity="1" fill-rule="evenodd"/></g><g clip-path="url(#c6a6d46d24)"><path fill="#ffffff" d="M 550.925781 802.800781 C 556.882812 803.953125 562.226562 806.847656 566.394531 810.933594 L 566.320312 811.066406 C 561.933594 813.066406 558.179688 816.339844 554.3125 819.378906 L 549.699219 815.066406 C 552.707031 812.035156 555.023438 808.726562 550.925781 802.800781 Z M 550.925781 802.800781 " fill-opacity="1" fill-rule="evenodd"/></g><g clip-path="url(#117156d4b6)"><path fill="#ffffff" d="M 554.523438 821.53125 L 558.523438 826.457031 C 548.773438 833.601562 552.921875 858.445312 542.109375 862.941406 C 534.457031 862.191406 527.636719 858.601562 522.710938 853.242188 C 532.570312 841.398438 542.765625 830.125 554.523438 821.53125 Z M 554.523438 821.53125 " fill-opacity="1" fill-rule="evenodd"/></g><path stroke-linecap="butt" transform="matrix(0.831442, -0.140278, 0.140278, 0.831442, 144.034038, 423.840351)" fill="none" stroke-linejoin="miter" d="M 34.815674 273.447682 L 58.894833 102.992351 L 54.938155 90.43845 L 101.04987 90.442775 L 93.820778 102.99342 L 69.741618 273.448752 L 73.970955 286.001673 L 27.858469 286.001916 Z M 94.886198 273.448604 L 118.965358 102.993272 L 115.008679 90.439371 L 151.362641 90.441764 L 176.807444 188.185817 L 178.169966 188.185487 L 190.175971 102.989742 L 186.288585 90.442834 L 232.396503 90.44182 L 225.097348 102.99004 L 201.088252 273.447796 L 205.252094 285.999063 L 168.963627 285.998325 L 143.24859 188.185188 L 141.881499 188.184748 L 129.807574 273.448902 L 134.036911 286.001823 L 87.929764 285.998269 Z M 221.216953 249.711952 L 232.950737 255.238739 L 267.877452 255.235241 L 280.700005 244.11691 L 283.497386 223.108883 L 233.224612 164.450712 L 239.090048 121.136651 L 274.285864 90.43849 L 337.175108 90.44046 L 332.128699 126.728009 L 320.123911 121.136706 L 285.202534 121.136408 L 272.580152 132.321398 L 269.784865 151.896839 L 320.122363 210.561232 L 313.984599 255.238795 L 279.332447 286.000491 L 216.443203 285.998521 Z M 328.178241 273.447496 L 352.252833 102.991394 L 348.295383 90.442061 L 430.762602 90.439643 L 457.024215 121.133112 L 446.11204 199.372199 L 411.187229 230.134876 L 369.307776 230.135179 L 363.099618 273.447795 L 367.328955 286.000716 L 321.216469 286.000959 Z M 399.999554 199.372443 L 412.824532 188.184048 L 420.670795 132.321829 L 410.916297 121.134126 L 384.381016 121.134548 L 373.46884 199.373636 Z M 453.90037 273.451324 L 477.9803 102.991424 L 474.022851 90.442092 L 520.135337 90.441848 L 512.901676 102.991723 L 488.827085 273.447825 L 493.051854 285.999975 L 446.943936 286.00099 Z M 513.971665 273.447677 L 538.046256 102.991575 L 534.093375 90.443013 L 616.556026 90.439824 L 642.817639 121.133293 L 633.269147 189.618865 L 609.261805 210.557959 L 620.172948 273.451438 L 625.765578 285.99946 L 581.020182 286.000144 L 585.251571 273.451139 L 576.039944 220.311189 L 556.467307 220.311781 L 548.893041 273.447976 L 553.122378 286.000897 L 507.009892 286.00114 Z M 587.227495 189.616964 L 600.051702 178.433138 L 606.464219 132.32201 L 596.709721 121.134307 L 570.174439 121.134729 L 560.625948 189.620301 Z M 641.094402 273.448204 L 665.168993 102.992102 L 661.212315 90.438201 L 761.823382 90.438436 L 756.776203 126.730553 L 744.772185 121.134682 L 697.297176 121.135256 L 689.997662 172.837886 L 720.761409 172.836752 L 734.131204 167.246521 L 728.266208 209.193492 L 716.534078 203.601209 L 685.836598 203.599429 L 678.538737 255.236563 L 728.879688 255.235609 L 742.24783 249.710873 L 737.539575 285.999096 L 634.132629 286.001667 Z M 641.094402 273.448204 " stroke="#ffffff" stroke-width="20.95425" stroke-opacity="1" stroke-miterlimit="4"/><g fill="#b8110a" fill-opacity="1"><g transform="translate(207.316891, 657.724842)"><g><path d="M 4.046875 -11.4375 L 0.125 -156.484375 L -4.90625 -166.40625 L 33.421875 -172.875 L 29.140625 -161.390625 L 33.078125 -16.328125 L 38.328125 -6.46875 L 0 0 Z M 4.046875 -11.4375 "/></g></g></g><g fill="#b8110a" fill-opacity="1"><g transform="translate(257.260588, 649.298546)"><g><path d="M 4.046875 -11.4375 L 0.125 -156.484375 L -4.90625 -166.40625 L 25.28125 -171.5 L 60.140625 -93.75 L 61.3125 -93.953125 L 59.34375 -166.484375 L 54.328125 -176.40625 L 92.65625 -182.875 L 88.390625 -171.375 L 92.3125 -26.328125 L 97.5625 -16.453125 L 67.359375 -11.359375 L 32.265625 -89.0625 L 31.109375 -88.859375 L 33.078125 -16.328125 L 38.328125 -6.46875 L 0 0 Z M 4.046875 -11.4375 "/></g></g></g><g fill="#b8110a" fill-opacity="1"><g transform="translate(366.439817, 630.878272)"><g><path d="M -3.453125 -30.484375 L 7.078125 -27.46875 L 36.09375 -32.359375 L 45.234375 -43.46875 L 44.625 -61.28125 L -5.4375 -103 L -6.640625 -139.828125 L 18.328125 -170.328125 L 70.578125 -179.140625 L 71.5 -148.234375 L 60.734375 -151.1875 L 31.6875 -146.296875 L 22.828125 -135.234375 L 23.234375 -118.59375 L 73.28125 -76.859375 L 74.4375 -38.828125 L 49.953125 -8.421875 L -2.328125 0.390625 Z M -3.453125 -30.484375 "/></g></g></g><g fill="#b8110a" fill-opacity="1"><g transform="translate(451.227941, 616.573166)"><g><path d="M 4.046875 -11.4375 L 0.125 -156.484375 L -4.90625 -166.40625 L 63.625 -177.96875 L 89.765625 -156.09375 L 91.671875 -89.53125 L 66.953125 -59.078125 L 32.109375 -53.1875 L 33.078125 -16.328125 L 38.328125 -6.46875 L 0 0 Z M 53.359375 -83.0625 L 62.46875 -94.15625 L 61.140625 -141.703125 L 51.4375 -149.625 L 29.359375 -145.90625 L 31.28125 -79.34375 Z M 53.359375 -83.0625 "/></g></g></g><g fill="#b8110a" fill-opacity="1"><g transform="translate(555.761249, 598.936733)"><g><path d="M 4.046875 -11.4375 L 0.125 -156.484375 L -4.90625 -166.40625 L 33.421875 -172.875 L 29.140625 -161.390625 L 33.078125 -16.328125 L 38.328125 -6.46875 L 0 0 Z M 4.046875 -11.4375 "/></g></g></g><g fill="#b8110a" fill-opacity="1"><g transform="translate(605.704937, 590.510438)"><g><path d="M 4.046875 -11.4375 L 0.125 -156.484375 L -4.90625 -166.40625 L 63.625 -177.96875 L 89.765625 -156.09375 L 91.484375 -97.859375 L 74.4375 -77.0625 L 92.3125 -26.328125 L 98.734375 -16.65625 L 61.546875 -10.390625 L 63.28125 -21.421875 L 48.171875 -64.265625 L 31.921875 -61.53125 L 33.078125 -16.328125 L 38.328125 -6.46875 L 0 0 Z M 53.15625 -91.390625 L 62.265625 -102.484375 L 61.140625 -141.703125 L 51.4375 -149.625 L 29.359375 -145.90625 L 31.09375 -87.671875 Z M 53.15625 -91.390625 "/></g></g></g><g fill="#b8110a" fill-opacity="1"><g transform="translate(711.399773, 572.678037)"><g><path d="M 4.046875 -11.4375 L 0.125 -156.484375 L -4.90625 -166.40625 L 78.71875 -180.515625 L 79.640625 -149.609375 L 68.859375 -152.5625 L 29.359375 -145.90625 L 30.578125 -101.921875 L 56.140625 -106.234375 L 66.515625 -112.765625 L 67.5 -77.078125 L 56.96875 -80.09375 L 31.40625 -75.78125 L 32.625 -31.78125 L 74.4375 -38.828125 L 84.8125 -45.375 L 85.9375 -14.5 L 0 0 Z M 4.046875 -11.4375 "/></g></g></g><g fill="#ffffff" fill-opacity="1"><g transform="translate(404.433164, 903.020798)"><g><path d="M 8.734375 2.875 L 4.765625 -4.921875 L 10.15625 -21.328125 L 17.984375 -25.265625 L 38.390625 -18.5625 L 36.46875 -12.734375 L 19.421875 -18.34375 L 16.21875 -16.703125 L 12.390625 -5.046875 L 14.015625 -1.859375 L 24.421875 1.5625 L 27.671875 -0.03125 L 28.84375 -3.5625 L 19.78125 -6.53125 L 21.46875 -11.6875 L 37.28125 -6.5 L 33.640625 4.5625 L 25.84375 8.484375 Z M 8.734375 2.875 "/></g></g></g><g fill="#ffffff" fill-opacity="1"><g transform="translate(437.76456, 913.671581)"><g><path d="M 2.109375 0.453125 L 3.296875 -5.046875 L 9.078125 -3.78125 L 12.984375 -21.71875 L 7.203125 -22.984375 L 8.390625 -28.5 L 27 -24.453125 L 25.8125 -18.9375 L 20.03125 -20.1875 L 16.125 -2.25 L 21.90625 -1 L 20.71875 4.5 Z M 2.109375 0.453125 "/></g></g></g><g fill="#ffffff" fill-opacity="1"><g transform="translate(459.748292, 918.587876)"><g><path d="M 3.8125 0.484375 L 7.5 -28.90625 L 14.640625 -28.015625 L 11.734375 -4.84375 L 27.765625 -2.828125 L 26.984375 3.390625 Z M 3.8125 0.484375 "/></g></g></g><g fill="#ffffff" fill-opacity="1"><g transform="translate(486.947449, 922.239208)"><g><path d="M 3.84375 0.046875 L 4.234375 -29.578125 L 27.265625 -29.265625 L 31.84375 -24.5625 L 31.765625 -18.546875 L 28.984375 -15.828125 L 33.15625 -11.53125 L 33.0625 -4.640625 L 27.921875 0.359375 Z M 11.28125 -17.84375 L 23.046875 -17.6875 L 24.578125 -19.1875 L 24.625 -22.078125 L 23.203125 -23.53125 L 11.359375 -23.6875 Z M 11.125 -5.65625 L 24.03125 -5.484375 L 25.90625 -7.3125 L 25.953125 -10.359375 L 24.234375 -12.125 L 11.203125 -12.296875 Z M 11.125 -5.65625 "/></g></g></g><g fill="#ffffff" fill-opacity="1"><g transform="translate(521.933238, 922.621546)"><g><path d="M 3.828125 -0.40625 L 0.6875 -29.859375 L 26.609375 -32.625 L 27.25 -26.515625 L 8.484375 -24.515625 L 9.09375 -18.84375 L 23.234375 -20.359375 L 23.84375 -14.71875 L 9.703125 -13.203125 L 10.328125 -7.28125 L 29.515625 -9.328125 L 30.171875 -3.21875 Z M 3.828125 -0.40625 "/></g></g></g><g fill="#ffffff" fill-opacity="1"><g transform="translate(553.413399, 919.372301)"><g><path d="M 3.75 -0.859375 L -2.859375 -29.734375 L 18.96875 -34.734375 L 25.546875 -30.609375 L 27.578125 -21.78125 L 23.890625 -15.890625 L 31.328125 -9.34375 L 31.796875 -7.28125 L 24.953125 -5.71875 L 16.484375 -13.328125 L 8.6875 -11.546875 L 10.765625 -2.46875 Z M 7.375 -17.265625 L 18.46875 -19.796875 L 20.0625 -22.359375 L 19.09375 -26.5625 L 16.5625 -28.140625 L 5.46875 -25.609375 Z M 7.375 -17.265625 "/></g></g></g><g fill="#ffffff" fill-opacity="1"><g transform="translate(587.10277, 911.539151)"><g><path d="M 10.875 -3.859375 L 3.03125 -26 L -7.453125 -22.28125 L -9.515625 -28.0625 L 18.25 -37.90625 L 20.3125 -32.125 L 9.828125 -28.40625 L 17.671875 -6.265625 Z M 10.875 -3.859375 "/></g></g></g><g fill="#ffffff" fill-opacity="1"><g transform="translate(614.569478, 901.505471)"><g><path d="M 6.515625 4.8125 L 5.15625 -1.8125 L 3.109375 -0.90625 L 0.40625 -7.03125 L 6.921875 -9.90625 L 9.234375 -4.671875 L 9.8125 3.359375 Z M 6.515625 4.8125 "/></g></g></g><g fill="#ffffff" fill-opacity="1"><g transform="translate(625.621859, 896.672093)"><g/></g></g><g fill="#ffffff" fill-opacity="1"><g transform="translate(637.944293, 891.091428)"><g><path d="M 3.875 -37.015625 L 28.125 -19.546875 L 29.21875 -17.75 L 23.25 -14.125 L 18.109375 -18.046875 L 5.40625 -10.328125 L 6.46875 -3.9375 L 0.6875 -0.40625 L -0.40625 -2.203125 L -4.71875 -31.796875 Z M 4.328125 -16.828125 L 12.84375 -22 L 3.203125 -29.28125 L 2.375 -28.78125 Z M 4.328125 -16.828125 "/></g></g></g><g fill="#ffffff" fill-opacity="1"><g transform="translate(667.41262, 873.060314)"><g><path d="M 1.40625 -1.09375 L -3.65625 -7.609375 L 1.75 -29.625 L 1.03125 -30.5625 L -12.625 -19.9375 L -16.40625 -24.78125 L 4.265625 -40.859375 L 9.328125 -34.34375 L 3.90625 -12.3125 L 4.640625 -11.390625 L 18.8125 -22.421875 L 22.578125 -17.578125 Z M 1.40625 -1.09375 "/></g></g></g></svg>