<svg xmlns="http://www.w3.org/2000/svg" xmlns:xlink="http://www.w3.org/1999/xlink" width="768" zoomAndPan="magnify" viewBox="0 0 576 359.999987" height="480" preserveAspectRatio="xMidYMid meet" version="1.0"><defs><g/><clipPath id="c418353306"><path d="M 45.367188 98.132812 L 110.671875 98.132812 L 110.671875 239.417969 L 45.367188 239.417969 Z M 45.367188 98.132812 " clip-rule="nonzero"/></clipPath></defs><g fill="#ffffff" fill-opacity="1"><g transform="translate(111.43527, 238.273116)"><g><path d="M 5.984375 0 L 5.984375 -135.390625 L 32.9375 -135.390625 L 32.9375 -87 L 45.703125 -87 L 45.703125 -135.390625 L 72.65625 -135.390625 L 72.65625 0 L 45.703125 0 L 45.703125 -61.46875 L 32.9375 -61.46875 L 32.9375 0 Z M 5.984375 0 "/></g></g></g><g fill="#ffffff" fill-opacity="1"><g transform="translate(190.080616, 238.273116)"><g><path d="M 38.296875 1.265625 C 27.367188 1.265625 19.066406 -2.066406 13.390625 -8.734375 C 7.722656 -15.410156 4.890625 -24.789062 4.890625 -36.875 L 4.890625 -101.34375 C 4.890625 -113.007812 7.722656 -121.804688 13.390625 -127.734375 C 19.066406 -133.671875 27.367188 -136.640625 38.296875 -136.640625 C 49.222656 -136.640625 57.523438 -133.671875 63.203125 -127.734375 C 68.878906 -121.804688 71.71875 -113.007812 71.71875 -101.34375 L 71.71875 -36.875 C 71.71875 -24.6875 68.878906 -15.28125 63.203125 -8.65625 C 57.523438 -2.039062 49.222656 1.265625 38.296875 1.265625 Z M 38.296875 -23.640625 C 40.710938 -23.640625 42.34375 -24.691406 43.1875 -26.796875 C 44.03125 -28.898438 44.453125 -31.84375 44.453125 -35.625 L 44.453125 -101.8125 C 44.453125 -104.757812 44.054688 -107.148438 43.265625 -108.984375 C 42.472656 -110.828125 40.867188 -111.75 38.453125 -111.75 C 33.929688 -111.75 31.671875 -108.332031 31.671875 -101.5 L 31.671875 -35.46875 C 31.671875 -31.570312 32.144531 -28.625 33.09375 -26.625 C 34.039062 -24.632812 35.773438 -23.640625 38.296875 -23.640625 Z M 38.296875 -23.640625 "/></g></g></g><g fill="#ffffff" fill-opacity="1"><g transform="translate(266.677125, 238.273116)"><g><path d="M 38.296875 1.265625 C 27.367188 1.265625 19.066406 -2.066406 13.390625 -8.734375 C 7.722656 -15.410156 4.890625 -24.789062 4.890625 -36.875 L 4.890625 -101.34375 C 4.890625 -113.007812 7.722656 -121.804688 13.390625 -127.734375 C 19.066406 -133.671875 27.367188 -136.640625 38.296875 -136.640625 C 49.222656 -136.640625 57.523438 -133.671875 63.203125 -127.734375 C 68.878906 -121.804688 71.71875 -113.007812 71.71875 -101.34375 L 71.71875 -36.875 C 71.71875 -24.6875 68.878906 -15.28125 63.203125 -8.65625 C 57.523438 -2.039062 49.222656 1.265625 38.296875 1.265625 Z M 38.296875 -23.640625 C 40.710938 -23.640625 42.34375 -24.691406 43.1875 -26.796875 C 44.03125 -28.898438 44.453125 -31.84375 44.453125 -35.625 L 44.453125 -101.8125 C 44.453125 -104.757812 44.054688 -107.148438 43.265625 -108.984375 C 42.472656 -110.828125 40.867188 -111.75 38.453125 -111.75 C 33.929688 -111.75 31.671875 -108.332031 31.671875 -101.5 L 31.671875 -35.46875 C 31.671875 -31.570312 32.144531 -28.625 33.09375 -26.625 C 34.039062 -24.632812 35.773438 -23.640625 38.296875 -23.640625 Z M 38.296875 -23.640625 "/></g></g></g><g fill="#ffffff" fill-opacity="1"><g transform="translate(343.273634, 238.273116)"><g><path d="M 5.984375 -135.390625 L 41.765625 -135.390625 C 52.585938 -135.390625 60.3125 -131.894531 64.9375 -124.90625 C 69.5625 -117.914062 71.875 -107.695312 71.875 -94.25 C 71.875 -80.800781 69.820312 -70.660156 65.71875 -63.828125 C 61.625 -57.003906 54.269531 -53.59375 43.65625 -53.59375 L 32.625 -53.59375 L 32.625 0 L 5.984375 0 Z M 34.203125 -78.015625 C 37.460938 -78.015625 39.851562 -78.617188 41.375 -79.828125 C 42.894531 -81.035156 43.890625 -82.769531 44.359375 -85.03125 C 44.835938 -87.289062 45.078125 -90.519531 45.078125 -94.71875 C 45.078125 -100.394531 44.445312 -104.492188 43.1875 -107.015625 C 41.925781 -109.535156 39.40625 -110.796875 35.625 -110.796875 L 32.625 -110.796875 L 32.625 -78.015625 Z M 34.203125 -78.015625 "/></g></g></g><g fill="#ffffff" fill-opacity="1"><g transform="translate(417.663614, 238.273116)"><g><path d="M 38.140625 1.265625 C 25.847656 1.265625 16.96875 -1.78125 11.5 -7.875 C 6.039062 -13.96875 3.3125 -23.796875 3.3125 -37.359375 L 3.3125 -50.59375 L 29.953125 -50.59375 L 29.953125 -33.734375 C 29.953125 -27.003906 32.101562 -23.640625 36.40625 -23.640625 C 38.820312 -23.640625 40.503906 -24.347656 41.453125 -25.765625 C 42.398438 -27.179688 42.875 -29.570312 42.875 -32.9375 C 42.875 -37.351562 42.347656 -41.003906 41.296875 -43.890625 C 40.242188 -46.785156 38.898438 -49.203125 37.265625 -51.140625 C 35.640625 -53.085938 32.726562 -56.109375 28.53125 -60.203125 L 16.859375 -71.875 C 7.828125 -80.695312 3.3125 -90.46875 3.3125 -101.1875 C 3.3125 -112.738281 5.960938 -121.535156 11.265625 -127.578125 C 16.578125 -133.617188 24.328125 -136.640625 34.515625 -136.640625 C 46.703125 -136.640625 55.472656 -133.410156 60.828125 -126.953125 C 66.191406 -120.492188 68.875 -110.378906 68.875 -96.609375 L 41.296875 -96.609375 L 41.140625 -105.90625 C 41.140625 -107.695312 40.640625 -109.117188 39.640625 -110.171875 C 38.640625 -111.222656 37.25 -111.75 35.46875 -111.75 C 33.363281 -111.75 31.785156 -111.171875 30.734375 -110.015625 C 29.679688 -108.859375 29.15625 -107.28125 29.15625 -105.28125 C 29.15625 -100.863281 31.675781 -96.296875 36.71875 -91.578125 L 52.484375 -76.4375 C 56.160156 -72.863281 59.207031 -69.472656 61.625 -66.265625 C 64.039062 -63.066406 65.984375 -59.285156 67.453125 -54.921875 C 68.921875 -50.566406 69.65625 -45.394531 69.65625 -39.40625 C 69.65625 -26.0625 67.210938 -15.945312 62.328125 -9.0625 C 57.441406 -2.175781 49.378906 1.265625 38.140625 1.265625 Z M 38.140625 1.265625 "/></g></g></g><g clip-path="url(#c418353306)"><path fill="#ffffff" d="M 45.367188 98.132812 L 110.671875 98.132812 L 110.671875 239.460938 L 45.367188 239.460938 Z M 45.367188 98.132812 " fill-opacity="1" fill-rule="nonzero"/></g><g fill="#2b2b2b" fill-opacity="1"><g transform="translate(106.451237, 217.700637)"><g><path d="M 0 -1.765625 L -50.65625 -1.765625 L -50.65625 -11.5625 L 0 -11.5625 Z M 0 -1.765625 "/></g></g></g><g fill="#2b2b2b" fill-opacity="1"><g transform="translate(106.451237, 204.314736)"><g><path d="M 0 -0.890625 L -50.65625 -5.78125 L -50.65625 -22.9375 L 0 -27.78125 L 0 -18.15625 L -8.203125 -17.453125 L -8.203125 -11.328125 L 0 -10.734375 Z M -16.28125 -12.09375 L -16.28125 -16.6875 L -42.046875 -14.453125 L -42.046875 -13.96875 Z M -16.28125 -12.09375 "/></g></g></g><g fill="#2b2b2b" fill-opacity="1"><g transform="translate(106.451237, 175.714912)"><g><path d="M -50.65625 -2.234375 L -50.65625 -15.984375 C -50.65625 -19.679688 -49.75 -22.363281 -47.9375 -24.03125 C -46.132812 -25.695312 -43.1875 -26.53125 -39.09375 -26.53125 L -36.859375 -26.53125 C -32.023438 -26.53125 -29.132812 -24.800781 -28.1875 -21.34375 C -27.632812 -23.46875 -26.351562 -24.960938 -24.34375 -25.828125 C -22.34375 -26.691406 -19.691406 -27.125 -16.390625 -27.125 C -11.003906 -27.125 -6.925781 -26.316406 -4.15625 -24.703125 C -1.382812 -23.097656 0 -20.191406 0 -15.984375 L 0 -2.234375 Z M -31.609375 -14.21875 C -31.609375 -15.082031 -31.929688 -15.671875 -32.578125 -15.984375 C -33.222656 -16.296875 -34.140625 -16.453125 -35.328125 -16.453125 L -40.390625 -16.453125 C -42.046875 -16.453125 -42.875 -15.722656 -42.875 -14.265625 L -42.875 -12.140625 L -31.609375 -12.140625 Z M -8.90625 -13.15625 C -8.90625 -15.78125 -10.160156 -17.09375 -12.671875 -17.09375 L -18.984375 -17.09375 C -20.515625 -17.09375 -21.671875 -16.867188 -22.453125 -16.421875 C -23.242188 -15.972656 -23.640625 -15.175781 -23.640625 -14.03125 L -23.640625 -12.140625 L -8.96875 -12.140625 Z M -8.90625 -13.15625 "/></g></g></g><g fill="#2b2b2b" fill-opacity="1"><g transform="translate(106.451237, 147.468892)"><g><path d="M 0.46875 -14.03125 C 0.46875 -10.332031 -0.6875 -7.375 -3 -5.15625 C -5.320312 -2.9375 -8.507812 -1.828125 -12.5625 -1.828125 L -35.90625 -1.828125 C -40.9375 -1.828125 -44.726562 -2.828125 -47.28125 -4.828125 C -49.84375 -6.835938 -51.125 -9.984375 -51.125 -14.265625 C -51.125 -18.003906 -50.101562 -21.015625 -48.0625 -23.296875 C -46.019531 -25.578125 -43.070312 -26.71875 -39.21875 -26.71875 L -30.484375 -26.71875 L -30.484375 -16.625 L -37.96875 -16.625 C -39.425781 -16.625 -40.429688 -16.445312 -40.984375 -16.09375 C -41.535156 -15.738281 -41.8125 -15.128906 -41.8125 -14.265625 C -41.8125 -13.367188 -41.492188 -12.75 -40.859375 -12.40625 C -40.234375 -12.070312 -39.3125 -11.90625 -38.09375 -11.90625 L -12.671875 -11.90625 C -11.335938 -11.90625 -10.363281 -12.101562 -9.75 -12.5 C -9.144531 -12.894531 -8.84375 -13.484375 -8.84375 -14.265625 C -8.84375 -15.835938 -10.117188 -16.625 -12.671875 -16.625 L -21.8125 -16.625 L -21.8125 -26.828125 L -12.265625 -26.828125 C -3.773438 -26.828125 0.46875 -22.5625 0.46875 -14.03125 Z M 0.46875 -14.03125 "/></g></g></g></svg>